<mxfile host="app.diagrams.net" modified="2023-05-05T15:46:37.288Z" agent="Mozilla/5.0 (X11; Linux x86_64) AppleWebKit/537.36 (KHTML, like Gecko) Chrome/112.0.0.0 Safari/537.36" etag="otHNvBKN0l4706_AmIKy" version="21.2.3" type="device">
  <diagram name="Page-1" id="OnXA02DcPYlMCkkC-qMc">
    <mxGraphModel dx="1044" dy="612" grid="1" gridSize="10" guides="1" tooltips="1" connect="1" arrows="1" fold="1" page="1" pageScale="1" pageWidth="1100" pageHeight="850" math="0" shadow="0">
      <root>
        <mxCell id="0" />
        <mxCell id="1" parent="0" />
        <mxCell id="6QPXXNlNiKOkEKoM3Ky3-5" value="Allocation Tables" style="rounded=0;whiteSpace=wrap;html=1;fillColor=#f8cecc;strokeColor=#b85450;" vertex="1" parent="1">
          <mxGeometry x="40" y="100" width="800" height="20" as="geometry" />
        </mxCell>
        <mxCell id="6QPXXNlNiKOkEKoM3Ky3-6" value="Data Region" style="rounded=0;whiteSpace=wrap;html=1;fillColor=#dae8fc;strokeColor=#6c8ebf;" vertex="1" parent="1">
          <mxGeometry x="840" y="100" width="780" height="20" as="geometry" />
        </mxCell>
        <mxCell id="6QPXXNlNiKOkEKoM3Ky3-8" value="&lt;font style=&quot;font-size: 10px;&quot;&gt;VLFS Version&lt;br&gt;u32&lt;br&gt;&lt;/font&gt;" style="rounded=0;whiteSpace=wrap;html=1;fillColor=#ffe6cc;strokeColor=#d79b00;" vertex="1" parent="1">
          <mxGeometry x="40" y="140" width="50" height="60" as="geometry" />
        </mxCell>
        <mxCell id="6QPXXNlNiKOkEKoM3Ky3-9" value="&lt;font style=&quot;font-size: 10px;&quot;&gt;Table sequence number&lt;br&gt;u32&lt;br&gt;&lt;/font&gt;" style="rounded=0;whiteSpace=wrap;html=1;fillColor=#ffe6cc;strokeColor=#d79b00;" vertex="1" parent="1">
          <mxGeometry x="90" y="140" width="50" height="60" as="geometry" />
        </mxCell>
        <mxCell id="6QPXXNlNiKOkEKoM3Ky3-10" value="&lt;font style=&quot;font-size: 10px;&quot;&gt;Number of files&lt;br&gt;u32&lt;br&gt;&lt;/font&gt;" style="rounded=0;whiteSpace=wrap;html=1;fillColor=#ffe6cc;strokeColor=#d79b00;" vertex="1" parent="1">
          <mxGeometry x="140" y="140" width="50" height="60" as="geometry" />
        </mxCell>
        <mxCell id="6QPXXNlNiKOkEKoM3Ky3-11" value="&lt;font style=&quot;font-size: 10px;&quot;&gt;File entry 0&lt;br&gt;&lt;/font&gt;" style="rounded=0;whiteSpace=wrap;html=1;fillColor=#fff2cc;strokeColor=#d6b656;" vertex="1" parent="1">
          <mxGeometry x="190" y="140" width="180" height="20" as="geometry" />
        </mxCell>
        <mxCell id="6QPXXNlNiKOkEKoM3Ky3-12" value="&lt;font style=&quot;font-size: 10px;&quot;&gt;File ID&lt;br&gt;u64&lt;br&gt;&lt;/font&gt;" style="rounded=0;whiteSpace=wrap;html=1;fillColor=#fff2cc;strokeColor=#d6b656;" vertex="1" parent="1">
          <mxGeometry x="190" y="160" width="50" height="40" as="geometry" />
        </mxCell>
        <mxCell id="6QPXXNlNiKOkEKoM3Ky3-13" value="&lt;font style=&quot;font-size: 10px;&quot;&gt;File type&lt;br&gt;u16&lt;br&gt;&lt;/font&gt;" style="rounded=0;whiteSpace=wrap;html=1;fillColor=#fff2cc;strokeColor=#d6b656;" vertex="1" parent="1">
          <mxGeometry x="240" y="160" width="50" height="40" as="geometry" />
        </mxCell>
        <mxCell id="6QPXXNlNiKOkEKoM3Ky3-14" value="&lt;font style=&quot;font-size: 10px;&quot;&gt;Index of the first sector &lt;br&gt;u16&lt;br&gt;&lt;/font&gt;" style="rounded=0;whiteSpace=wrap;html=1;fillColor=#fff2cc;strokeColor=#d6b656;" vertex="1" parent="1">
          <mxGeometry x="290" y="160" width="80" height="40" as="geometry" />
        </mxCell>
        <mxCell id="6QPXXNlNiKOkEKoM3Ky3-15" value="&lt;font style=&quot;font-size: 10px;&quot;&gt;File entry 1&lt;br&gt;&lt;/font&gt;" style="rounded=0;whiteSpace=wrap;html=1;fillColor=#fff2cc;strokeColor=#d6b656;" vertex="1" parent="1">
          <mxGeometry x="370" y="140" width="60" height="60" as="geometry" />
        </mxCell>
        <mxCell id="6QPXXNlNiKOkEKoM3Ky3-17" value="&lt;font style=&quot;font-size: 10px;&quot;&gt;File entry n&lt;br&gt;&lt;/font&gt;" style="rounded=0;whiteSpace=wrap;html=1;fillColor=#fff2cc;strokeColor=#d6b656;" vertex="1" parent="1">
          <mxGeometry x="490" y="140" width="60" height="60" as="geometry" />
        </mxCell>
        <mxCell id="6QPXXNlNiKOkEKoM3Ky3-18" value="&lt;font style=&quot;font-size: 10px;&quot;&gt;...&lt;br&gt;&lt;/font&gt;" style="rounded=0;whiteSpace=wrap;html=1;fillColor=#fff2cc;strokeColor=#d6b656;" vertex="1" parent="1">
          <mxGeometry x="430" y="140" width="60" height="60" as="geometry" />
        </mxCell>
        <mxCell id="6QPXXNlNiKOkEKoM3Ky3-19" value="&lt;font style=&quot;font-size: 10px;&quot;&gt;Allocation Table 1&lt;br&gt;&lt;/font&gt;" style="rounded=0;whiteSpace=wrap;html=1;fillColor=#ffe6cc;strokeColor=#d79b00;" vertex="1" parent="1">
          <mxGeometry x="40" y="120" width="620" height="20" as="geometry" />
        </mxCell>
        <mxCell id="6QPXXNlNiKOkEKoM3Ky3-20" value="&lt;font style=&quot;font-size: 10px;&quot;&gt;Allocation Table 2&lt;br&gt;&lt;/font&gt;" style="rounded=0;whiteSpace=wrap;html=1;fillColor=#ffe6cc;strokeColor=#d79b00;" vertex="1" parent="1">
          <mxGeometry x="660" y="120" width="60" height="80" as="geometry" />
        </mxCell>
        <mxCell id="6QPXXNlNiKOkEKoM3Ky3-21" value="&lt;font style=&quot;font-size: 10px;&quot;&gt;Allocation Table 3&lt;br&gt;&lt;/font&gt;" style="rounded=0;whiteSpace=wrap;html=1;fillColor=#ffe6cc;strokeColor=#d79b00;" vertex="1" parent="1">
          <mxGeometry x="720" y="120" width="60" height="80" as="geometry" />
        </mxCell>
        <mxCell id="6QPXXNlNiKOkEKoM3Ky3-22" value="&lt;font style=&quot;font-size: 10px;&quot;&gt;Allocation Table 4&lt;br&gt;&lt;/font&gt;" style="rounded=0;whiteSpace=wrap;html=1;fillColor=#ffe6cc;strokeColor=#d79b00;" vertex="1" parent="1">
          <mxGeometry x="780" y="120" width="60" height="80" as="geometry" />
        </mxCell>
        <mxCell id="6QPXXNlNiKOkEKoM3Ky3-23" value="" style="shape=curlyBracket;whiteSpace=wrap;html=1;rounded=1;flipH=1;labelPosition=right;verticalLabelPosition=middle;align=left;verticalAlign=middle;strokeColor=#4D4D4D;fontFamily=Helvetica;fontSize=12;fontColor=default;fillColor=#ffe6cc;rotation=90;" vertex="1" parent="1">
          <mxGeometry x="340" y="-90" width="20" height="620" as="geometry" />
        </mxCell>
        <mxCell id="6QPXXNlNiKOkEKoM3Ky3-24" value="&lt;font style=&quot;font-size: 10px;&quot;&gt;Checksum&lt;br&gt;u32&lt;br&gt;&lt;/font&gt;" style="rounded=0;whiteSpace=wrap;html=1;fillColor=#fff2cc;strokeColor=#d6b656;" vertex="1" parent="1">
          <mxGeometry x="550" y="140" width="60" height="60" as="geometry" />
        </mxCell>
        <mxCell id="6QPXXNlNiKOkEKoM3Ky3-25" value="&lt;font style=&quot;font-size: 10px;&quot;&gt;Empty space&lt;br&gt;&lt;/font&gt;" style="rounded=0;whiteSpace=wrap;html=1;fillColor=#fff2cc;strokeColor=#d6b656;" vertex="1" parent="1">
          <mxGeometry x="610" y="140" width="50" height="60" as="geometry" />
        </mxCell>
        <mxCell id="6QPXXNlNiKOkEKoM3Ky3-26" value="32KiB" style="text;html=1;strokeColor=none;fillColor=none;align=center;verticalAlign=middle;whiteSpace=wrap;rounded=0;fontSize=12;fontFamily=Helvetica;fontColor=default;" vertex="1" parent="1">
          <mxGeometry x="320" y="230" width="60" height="30" as="geometry" />
        </mxCell>
        <mxCell id="6QPXXNlNiKOkEKoM3Ky3-27" value="" style="shape=curlyBracket;whiteSpace=wrap;html=1;rounded=1;flipH=1;labelPosition=right;verticalLabelPosition=middle;align=left;verticalAlign=middle;strokeColor=#4D4D4D;fontFamily=Helvetica;fontSize=12;fontColor=default;fillColor=#ffe6cc;rotation=90;" vertex="1" parent="1">
          <mxGeometry x="430" y="-120" width="20" height="800" as="geometry" />
        </mxCell>
        <mxCell id="6QPXXNlNiKOkEKoM3Ky3-28" value="128KiB" style="text;html=1;strokeColor=none;fillColor=none;align=center;verticalAlign=middle;whiteSpace=wrap;rounded=0;fontSize=12;fontFamily=Helvetica;fontColor=default;" vertex="1" parent="1">
          <mxGeometry x="410" y="290" width="60" height="30" as="geometry" />
        </mxCell>
        <mxCell id="6QPXXNlNiKOkEKoM3Ky3-29" value="&lt;font style=&quot;font-size: 10px;&quot;&gt;Data Sector&lt;/font&gt;" style="rounded=0;whiteSpace=wrap;html=1;strokeColor=#82b366;fontFamily=Helvetica;fontSize=12;fillColor=#CAE8E4;" vertex="1" parent="1">
          <mxGeometry x="840" y="120" width="600" height="20" as="geometry" />
        </mxCell>
        <mxCell id="6QPXXNlNiKOkEKoM3Ky3-30" value="&lt;font style=&quot;font-size: 10px;&quot;&gt;Data Page 0&lt;/font&gt;" style="rounded=0;whiteSpace=wrap;html=1;strokeColor=#82b366;fontFamily=Helvetica;fontSize=12;fillColor=#d5e8d4;" vertex="1" parent="1">
          <mxGeometry x="840" y="140" width="160" height="20" as="geometry" />
        </mxCell>
        <mxCell id="6QPXXNlNiKOkEKoM3Ky3-31" value="&lt;font style=&quot;font-size: 10px;&quot;&gt;Data &lt;br&gt;252 bytes&lt;/font&gt;" style="rounded=0;whiteSpace=wrap;html=1;strokeColor=#82b366;fontFamily=Helvetica;fontSize=12;fillColor=#d5e8d4;" vertex="1" parent="1">
          <mxGeometry x="840" y="160" width="120" height="40" as="geometry" />
        </mxCell>
        <mxCell id="6QPXXNlNiKOkEKoM3Ky3-32" value="&lt;font style=&quot;font-size: 10px;&quot;&gt;CRC u32&lt;/font&gt;" style="rounded=0;whiteSpace=wrap;html=1;strokeColor=#82b366;fontFamily=Helvetica;fontSize=12;fillColor=#d5e8d4;" vertex="1" parent="1">
          <mxGeometry x="960" y="160" width="40" height="40" as="geometry" />
        </mxCell>
        <mxCell id="6QPXXNlNiKOkEKoM3Ky3-33" value="&lt;font style=&quot;font-size: 10px;&quot;&gt;Data Page 1&lt;/font&gt;" style="rounded=0;whiteSpace=wrap;html=1;strokeColor=#82b366;fontFamily=Helvetica;fontSize=12;fillColor=#d5e8d4;" vertex="1" parent="1">
          <mxGeometry x="1000" y="140" width="40" height="60" as="geometry" />
        </mxCell>
        <mxCell id="6QPXXNlNiKOkEKoM3Ky3-34" value="&lt;font style=&quot;font-size: 10px;&quot;&gt;...&lt;/font&gt;" style="rounded=0;whiteSpace=wrap;html=1;strokeColor=#82b366;fontFamily=Helvetica;fontSize=12;fillColor=#d5e8d4;" vertex="1" parent="1">
          <mxGeometry x="1040" y="140" width="40" height="60" as="geometry" />
        </mxCell>
        <mxCell id="6QPXXNlNiKOkEKoM3Ky3-35" value="&lt;font style=&quot;font-size: 10px;&quot;&gt;Data Page 14&lt;/font&gt;" style="rounded=0;whiteSpace=wrap;html=1;strokeColor=#82b366;fontFamily=Helvetica;fontSize=12;fillColor=#d5e8d4;" vertex="1" parent="1">
          <mxGeometry x="1080" y="140" width="40" height="60" as="geometry" />
        </mxCell>
        <mxCell id="6QPXXNlNiKOkEKoM3Ky3-36" value="&lt;font style=&quot;font-size: 10px;&quot;&gt;Last Data Page (15)&lt;/font&gt;" style="rounded=0;whiteSpace=wrap;html=1;strokeColor=#82b366;fontFamily=Helvetica;fontSize=12;fillColor=#d5e8d4;" vertex="1" parent="1">
          <mxGeometry x="1120" y="140" width="320" height="20" as="geometry" />
        </mxCell>
        <mxCell id="6QPXXNlNiKOkEKoM3Ky3-37" value="&lt;font style=&quot;font-size: 10px;&quot;&gt;Data &lt;br&gt;(Max 236 bytes)&lt;br&gt;&lt;/font&gt;" style="rounded=0;whiteSpace=wrap;html=1;strokeColor=#82b366;fontFamily=Helvetica;fontSize=12;fillColor=#d5e8d4;" vertex="1" parent="1">
          <mxGeometry x="1120" y="160" width="80" height="40" as="geometry" />
        </mxCell>
        <mxCell id="6QPXXNlNiKOkEKoM3Ky3-38" value="&lt;font style=&quot;font-size: 10px;&quot;&gt;Empty space&lt;br&gt;&lt;/font&gt;" style="rounded=0;whiteSpace=wrap;html=1;strokeColor=#82b366;fontFamily=Helvetica;fontSize=12;fillColor=#d5e8d4;" vertex="1" parent="1">
          <mxGeometry x="1240" y="160" width="40" height="40" as="geometry" />
        </mxCell>
        <mxCell id="6QPXXNlNiKOkEKoM3Ky3-39" value="&lt;font style=&quot;font-size: 10px;&quot;&gt;CRC&lt;br&gt;u32&lt;br&gt;&lt;/font&gt;" style="rounded=0;whiteSpace=wrap;html=1;strokeColor=#82b366;fontFamily=Helvetica;fontSize=12;fillColor=#d5e8d4;" vertex="1" parent="1">
          <mxGeometry x="1200" y="160" width="40" height="40" as="geometry" />
        </mxCell>
        <mxCell id="6QPXXNlNiKOkEKoM3Ky3-40" value="&lt;font style=&quot;font-size: 10px;&quot;&gt;Data Length&lt;br&gt;u16 repeated x4&lt;br&gt;&lt;/font&gt;" style="rounded=0;whiteSpace=wrap;html=1;strokeColor=#82b366;fontFamily=Helvetica;fontSize=12;fillColor=#d5e8d4;" vertex="1" parent="1">
          <mxGeometry x="1280" y="160" width="60" height="40" as="geometry" />
        </mxCell>
        <mxCell id="6QPXXNlNiKOkEKoM3Ky3-41" value="&lt;font style=&quot;font-size: 10px;&quot;&gt;Next sector index&lt;br&gt;u16&lt;br&gt;repeated x4&lt;br&gt;&lt;/font&gt;" style="rounded=0;whiteSpace=wrap;html=1;strokeColor=#82b366;fontFamily=Helvetica;fontSize=12;fillColor=#d5e8d4;" vertex="1" parent="1">
          <mxGeometry x="1340" y="160" width="100" height="40" as="geometry" />
        </mxCell>
        <mxCell id="6QPXXNlNiKOkEKoM3Ky3-42" value="" style="shape=curlyBracket;whiteSpace=wrap;html=1;rounded=1;flipH=1;labelPosition=right;verticalLabelPosition=middle;align=left;verticalAlign=middle;strokeColor=#4D4D4D;fontFamily=Helvetica;fontSize=12;fontColor=default;fillColor=#ffe6cc;rotation=90;" vertex="1" parent="1">
          <mxGeometry x="910" y="140" width="20" height="160" as="geometry" />
        </mxCell>
        <mxCell id="6QPXXNlNiKOkEKoM3Ky3-43" value="256 bytes" style="text;html=1;strokeColor=none;fillColor=none;align=center;verticalAlign=middle;whiteSpace=wrap;rounded=0;fontSize=12;fontFamily=Helvetica;fontColor=default;" vertex="1" parent="1">
          <mxGeometry x="890" y="230" width="60" height="30" as="geometry" />
        </mxCell>
        <mxCell id="6QPXXNlNiKOkEKoM3Ky3-44" value="" style="shape=curlyBracket;whiteSpace=wrap;html=1;rounded=1;flipH=1;labelPosition=right;verticalLabelPosition=middle;align=left;verticalAlign=middle;strokeColor=#4D4D4D;fontFamily=Helvetica;fontSize=12;fontColor=default;fillColor=#ffe6cc;rotation=90;" vertex="1" parent="1">
          <mxGeometry x="1130" y="-18.75" width="20" height="597.5" as="geometry" />
        </mxCell>
        <mxCell id="6QPXXNlNiKOkEKoM3Ky3-45" value="4KiB" style="text;html=1;strokeColor=none;fillColor=none;align=center;verticalAlign=middle;whiteSpace=wrap;rounded=0;fontSize=12;fontFamily=Helvetica;fontColor=default;" vertex="1" parent="1">
          <mxGeometry x="1110" y="290" width="60" height="30" as="geometry" />
        </mxCell>
        <mxCell id="6QPXXNlNiKOkEKoM3Ky3-46" value="&lt;font style=&quot;font-size: 12px;&quot;&gt;Data Sector&lt;/font&gt;" style="rounded=0;whiteSpace=wrap;html=1;strokeColor=#82b366;fontFamily=Helvetica;fontSize=12;fillColor=#CAE8E4;" vertex="1" parent="1">
          <mxGeometry x="1440" y="120" width="60" height="80" as="geometry" />
        </mxCell>
        <mxCell id="6QPXXNlNiKOkEKoM3Ky3-47" value="&lt;font style=&quot;font-size: 12px;&quot;&gt;Data Sector&lt;/font&gt;" style="rounded=0;whiteSpace=wrap;html=1;strokeColor=#82b366;fontFamily=Helvetica;fontSize=12;fillColor=#CAE8E4;" vertex="1" parent="1">
          <mxGeometry x="1500" y="120" width="60" height="80" as="geometry" />
        </mxCell>
        <mxCell id="6QPXXNlNiKOkEKoM3Ky3-48" value="&lt;font style=&quot;font-size: 12px;&quot;&gt;...&lt;/font&gt;" style="rounded=0;whiteSpace=wrap;html=1;strokeColor=#82b366;fontFamily=Helvetica;fontSize=12;fillColor=#CAE8E4;" vertex="1" parent="1">
          <mxGeometry x="1560" y="120" width="60" height="80" as="geometry" />
        </mxCell>
        <mxCell id="6QPXXNlNiKOkEKoM3Ky3-50" value="Disk" style="rounded=0;whiteSpace=wrap;html=1;strokeColor=#9673a6;fontFamily=Helvetica;fontSize=12;fillColor=#e1d5e7;" vertex="1" parent="1">
          <mxGeometry x="40" y="80" width="1580" height="20" as="geometry" />
        </mxCell>
      </root>
    </mxGraphModel>
  </diagram>
</mxfile>
